<svg xmlns="http://www.w3.org/2000/svg" viewBox="0 0 206 64"><path fill="none" d="M0 0h206v64H0z"/><path fill="#FFF" d="M103 34.2c-13.3 0-23.7-7.3-23.7-16.7S89.7.9 103 .9s23.7 7.3 23.7 16.7-10.4 16.6-23.7 16.6z"/><path fill="#A39A96" d="M103 34.7c-13.5 0-24.1-7.5-24.1-17.1S89.5.5 103 .5c13.5 0 24.1 7.5 24.1 17.1S116.5 34.7 103 34.7zm0-33.4c-13.1 0-23.3 7.1-23.3 16.2S89.9 33.8 103 33.8s23.3-7.1 23.3-16.2S116.1 1.3 103 1.3z"/><path fill="#A39A96" d="M103 3.7c-11.5 0-20.9 6.2-20.9 13.8s9.4 13.8 20.9 13.8c11.5 0 20.9-6.2 20.9-13.8S114.5 3.7 103 3.7zm12.9 5.1c-3.2.3-8 1.8-12.9 7.3-4.9-5.5-9.7-7-12.9-7.3 3.4-2 7.9-3.2 12.9-3.2s9.5 1.2 12.9 3.2zM84 17.6c0-2.5 1.3-4.9 3.4-6.8 1.9-.3 7.9-.4 14.3 6.8-6.4 7.2-12.4 7.1-14.3 6.9-2.1-2-3.4-4.4-3.4-6.9zm6.1 8.7c3.2-.3 8-1.8 12.9-7.3 4.9 5.5 9.7 7 12.9 7.3-3.4 2-7.9 3.2-12.9 3.2s-9.5-1.2-12.9-3.2zm28.4-1.9c-1.9.3-7.9.4-14.3-6.9 6.4-7.2 12.4-7.1 14.3-6.9 2.2 1.9 3.4 4.3 3.4 6.9.1 2.6-1.2 5-3.4 6.9zM8.4 63.3c-1 0-3-.1-3.7-.1-1.7 0-3.1.1-4.3.2-.2 0-.1-.3 0-.4 2.7-.3 2.8-.2 2.8-4.9v-9c0-4.6-.2-4.6-2.8-4.9-.1 0-.1-.4 0-.3 1.2.2 2.1.2 3.8.2.7 0 2.6-.1 3.6-.1 3.2 0 6 1.5 6 4.4 0 1.9-1.9 3.8-4.4 4.3 3.5-.1 6.2 1.9 6.2 4.7-.1 3.3-2.8 5.9-7.2 5.9zm-2-10.2c-.1 0-.1-.4 0-.4 3.6 0 5.1-1.1 5.1-3.9 0-3.1-1.8-4.2-4.4-4.2-.5 0-.7 0-1.2.1-.2.9-.3 2.1-.3 4.4v9.2c0 4 .3 4.4 2.5 4.4 3.3 0 5-1.2 5-4.8 0-3-2.5-5.3-6.7-4.8zm31.1 9.7c-.2.5-.3.5-.7.5-1.1 0-2.9-.2-5.1-.2-2.9 0-6 .1-8.1.2-.2 0-.1-.3 0-.4 3-.3 3.1-.2 3.1-4.9v-9c0-4.7-.1-4.5-3.1-4.9-.1 0-.2-.4 0-.3 2.1.2 5 .2 8 .2 2.2 0 4.1-.1 5.7-.2-.1.4-.2 1-.2 1.6 0 .3 0 .9.1 1.1 0 .1-.4.1-.4 0-.2-1.4-.8-1.8-4.8-1.8h-2.9c-.1.9-.1 2.3-.1 4.3v4h3.1c3.3 0 3.1-.3 3.2-1.1 0 0 .4-.1.4 0-.1.5-.2 1.2-.2 1.9 0 .3 0 1 .1 1.2 0 .1-.3.1-.3 0-.2-1-.3-1.4-3.1-1.4H29V58c0 4 .5 4.4 1.9 4.4h1.5c4.6 0 4.8-.5 5.3-2.5 0 0 .4 0 .4.1-.2.8-.4 2.2-.6 2.8zM65 45.6c0 .5 0 1.2.1 1.6 0 .1-.4 0-.4 0-.2-1.4-.7-2.1-4.6-2.1h-3.2v13.1c0 4.5 0 4.7 2.8 4.9.1 0 .2.4 0 .4-.9-.1-2.4-.2-3.6-.2-1.7 0-3.1.1-4.3.2-.1 0-.1-.3 0-.4 2.7-.3 2.8-.2 2.8-4.9V45.1h-3.3c-3.8 0-4.4.7-4.8 2.1 0 0-.4.1-.3 0 .1-.6.2-1.7.2-2.5 0-.5-.1-1.1-.2-1.6 0-.1.4 0 .4 0 .2 1 .4 1.1 4.7 1.1h8.8c4.4 0 4.6-.1 4.8-1.1 0 0 .4-.1.3 0-.1.7-.2 1.5-.2 2.5zm26.1 17.6c-1.7 0-2.8.1-4.1.2-.2 0-.1-.3 0-.4 2.3-.2 2.6-.3 2.6-4.9v-4.3H78.3v4.3c0 4.4.1 4.7 2.6 4.9.1 0 .2.4 0 .4-.9-.1-2.1-.2-3.4-.2-1.7 0-3.3.1-4.6.2-.1 0-.1-.3 0-.4 3-.3 3.1-.2 3.1-4.9v-9c0-4.7 0-4.5-3.1-4.9-.1 0-.1-.4 0-.3 1.3.2 2.9.2 4.6.2 1.3 0 2.5-.1 3.4-.2.2 0 .1.3 0 .3-2.4.2-2.6.5-2.6 4.9v4.1h11.3v-4.1c0-4.6-.2-4.6-2.6-4.9-.1 0-.2-.4 0-.3 1.3.2 2.3.2 4.1.2 1.2 0 3-.1 3.9-.2.2 0 .1.3 0 .3-3.1.3-3.1.4-3.1 4.9v9c0 4.5-.1 4.6 3.1 4.9.1 0 .2.4 0 .4-.9-.1-2.7-.2-3.9-.2zm46.6-14.1l-5.9 14.5c0 .1-.3.1-.3 0l-4.5-13-5.6 13c0 .1-.3.1-.3 0l-5.7-14.5c-1.4-3.6-1.9-4.7-4.3-4.9-.1 0-.1-.4 0-.3.8.1 2 .2 3.1.2 1.6 0 3.6-.1 4.7-.2.2 0 .1.3 0 .3-1.4.1-2.2.4-2.2 1.2 0 .6.7 2.7 1.1 3.7L122 60l4.4-10.5-.1-.4c-1.3-3.7-1.8-4.7-4.1-4.9-.1 0-.1-.4 0-.3.8.1 2 .2 3.1.2 1.6 0 3.8-.1 5-.2.1 0 .1.3 0 .3-1.9.1-2.5.4-2.5 1.4 0 .7.3 1.8.9 3.5l3.6 10.9 4.3-11.1c.7-1.8 1.1-2.7 1.1-3.5 0-.8-.5-1.1-2-1.2-.1 0-.2-.4 0-.3.8.1 1.7.2 2.9.2 1.6 0 1.6-.1 2.8-.2.1 0 .1.3 0 .3-1.7.2-2.3 1.5-3.7 4.9zm22.4 13.7c-.2.5-.3.5-.7.5-1.1 0-2.9-.2-5.1-.2-2.9 0-6 .1-8.1.2-.2 0-.1-.3 0-.4 3-.3 3.1-.2 3.1-4.9v-9c0-4.7-.1-4.5-3.1-4.9-.1 0-.2-.4 0-.3 2.1.2 5 .2 8 .2 2.2 0 4.1-.1 5.7-.2-.1.4-.2 1-.2 1.6 0 .3 0 .9.1 1.1 0 .1-.4.1-.4 0-.2-1.4-.8-1.8-4.8-1.8h-2.9c-.1.8-.2 2.2-.2 4.1v4h3.1c3.3 0 3.1-.3 3.2-1.1 0 0 .4-.1.4 0-.1.5-.2 1.2-.2 1.9 0 .3 0 1 .1 1.2 0 .1-.3.1-.3 0-.2-1-.3-1.4-3.1-1.4h-3.1V58c0 4 .5 4.4 1.9 4.4h1.5c4.6 0 4.8-.5 5.3-2.5 0 0 .4 0 .4.1-.1.8-.4 2.2-.6 2.8zm16.4.5c-1 0-3-.1-3.7-.1-1.7 0-3.1.1-4.3.2-.2 0-.1-.3 0-.4 2.7-.3 2.8-.2 2.8-4.9v-9c0-4.6-.2-4.6-2.8-4.9-.1 0-.2-.4 0-.3 1.2.2 2.1.2 3.8.2.7 0 2.6-.1 3.6-.1 3.2 0 6 1.5 6 4.4 0 1.9-1.9 3.8-4.4 4.3 3.5-.1 6.2 1.9 6.2 4.7-.1 3.3-2.8 5.9-7.2 5.9zm-2.1-10.2c-.1 0-.1-.4 0-.4 3.6 0 5.1-1.1 5.1-3.9 0-3.1-1.8-4.2-4.4-4.2-.5 0-.7 0-1.2.1-.2.9-.3 2.1-.3 4.4v9.2c0 4 .3 4.4 2.5 4.4 3.3 0 5-1.2 5-4.8.1-3-2.4-5.3-6.7-4.8zm24.2 10.2c-1 0-3-.1-3.7-.1-1.7 0-3.1.1-4.3.2-.2 0-.1-.3 0-.4 2.7-.3 2.8-.2 2.8-4.9v-9c0-4.6-.2-4.6-2.8-4.9-.1 0-.2-.4 0-.3 1.2.2 2.1.2 3.8.2.7 0 2.6-.1 3.6-.1 3.2 0 6 1.5 6 4.4 0 1.9-1.9 3.8-4.4 4.3 3.5-.1 6.2 1.9 6.2 4.7 0 3.3-2.8 5.9-7.2 5.9zm-2-10.2c-.1 0-.1-.4 0-.4 3.6 0 5.1-1.1 5.1-3.9 0-3.1-1.8-4.2-4.4-4.2-.5 0-.7 0-1.2.1-.2.9-.3 2.1-.3 4.4v9.2c0 4 .3 4.4 2.5 4.4 3.3 0 5-1.2 5-4.8 0-3-2.5-5.3-6.7-4.8z"/></svg>