<svg xmlns="http://www.w3.org/2000/svg" viewBox="0 0 16 16"><path fill="#A39A96" d="M2.1 0H14c1.1 0 2 .9 2 2.1V14c0 1.1-.9 2.1-2.1 2.1H2.1C.9 16 0 15.1 0 13.9V2.1C0 .9.9 0 2.1 0zm9.6 1.8c-.4 0-.7.3-.7.7v1.7c0 .4.3.7.7.7h1.8c.4 0 .7-.3.7-.7V2.5c0-.4-.3-.7-.7-.7h-1.8zm2.5 5h-1.4c.1.4.2.9.2 1.3 0 2.7-2.2 4.8-5 4.8-2.7 0-5-2.2-5-4.8 0-.5.1-.9.2-1.4H1.8v6.8c0 .4.3.6.6.6h11.1c.4 0 .6-.3.6-.6V6.8h.1zM8 4.9C6.2 4.9 4.8 6.2 4.8 8c0 1.7 1.4 3.1 3.2 3.1 1.8 0 3.2-1.4 3.2-3.1 0-1.8-1.4-3.1-3.2-3.1z"/></svg>