<?xml version="1.0" encoding="utf-8"?>
<!-- Generator: Adobe Illustrator 18.1.1, SVG Export Plug-In . SVG Version: 6.00 Build 0)  -->
<svg version="1.1" id="Layer_1" xmlns="http://www.w3.org/2000/svg" xmlns:xlink="http://www.w3.org/1999/xlink" x="0px" y="0px"
	 viewBox="0 0 206 64" enable-background="new 0 0 206 64" xml:space="preserve">
<g>
	<rect fill="none" width="206" height="64"/>
	<g>
		<g>
			<g>
				<path fill="#FFFFFF" d="M103,34.2c-13.3,0-23.7-7.3-23.7-16.7S89.7,0.9,103,0.9s23.7,7.3,23.7,16.7S116.3,34.2,103,34.2z"/>
				<path fill="#A39A96" d="M103,34.7c-13.5,0-24.1-7.5-24.1-17.1S89.5,0.5,103,0.5c13.5,0,24.1,7.5,24.1,17.1S116.5,34.7,103,34.7z
					 M103,1.3c-13.1,0-23.3,7.1-23.3,16.2S89.9,33.8,103,33.8s23.3-7.1,23.3-16.2S116.1,1.3,103,1.3z"/>
			</g>
			<path fill="#A39A96" d="M103,3.7c-11.5,0-20.9,6.2-20.9,13.8s9.4,13.8,20.9,13.8c11.5,0,20.9-6.2,20.9-13.8S114.5,3.7,103,3.7z
				 M115.9,8.8c-3.2,0.3-8,1.8-12.9,7.3c-4.9-5.5-9.7-7-12.9-7.3c3.4-2,7.9-3.2,12.9-3.2C108,5.6,112.5,6.8,115.9,8.8z M84,17.6
				c0-2.5,1.3-4.9,3.4-6.8c1.9-0.3,7.9-0.4,14.3,6.8c-6.4,7.2-12.4,7.1-14.3,6.9C85.3,22.5,84,20.1,84,17.6z M90.1,26.3
				c3.2-0.3,8-1.8,12.9-7.3c4.9,5.5,9.7,7,12.9,7.3c-3.4,2-7.9,3.2-12.9,3.2C98,29.5,93.5,28.3,90.1,26.3z M118.5,24.4
				c-1.9,0.3-7.9,0.4-14.3-6.9c6.4-7.2,12.4-7.1,14.3-6.9c2.2,1.9,3.4,4.3,3.4,6.9C122,20.1,120.7,22.5,118.5,24.4z"/>
		</g>
		<g>
			<path fill="#A39A96" d="M8.4,63.3c-1,0-3-0.1-3.7-0.1c-1.7,0-3.1,0.1-4.3,0.2c-0.2,0-0.1-0.3,0-0.4c2.7-0.3,2.8-0.2,2.8-4.9v-9
				c0-4.6-0.2-4.6-2.8-4.9c-0.1,0-0.1-0.4,0-0.3c1.2,0.2,2.1,0.2,3.8,0.2c0.7,0,2.6-0.1,3.6-0.1c3.2,0,6,1.5,6,4.4
				c0,1.9-1.9,3.8-4.4,4.3c3.5-0.1,6.2,1.9,6.2,4.7C15.5,60.7,12.8,63.3,8.4,63.3z M6.4,53.1c-0.1,0-0.1-0.4,0-0.4
				c3.6,0,5.1-1.1,5.1-3.9c0-3.1-1.8-4.2-4.4-4.2c-0.5,0-0.7,0-1.2,0.1c-0.2,0.9-0.3,2.1-0.3,4.4v9.2c0,4,0.3,4.4,2.5,4.4
				c3.3,0,5-1.2,5-4.8C13.1,54.9,10.6,52.6,6.4,53.1z"/>
			<path fill="#A39A96" d="M37.5,62.8c-0.2,0.5-0.3,0.5-0.7,0.5c-1.1,0-2.9-0.2-5.1-0.2c-2.9,0-6,0.1-8.1,0.2c-0.2,0-0.1-0.3,0-0.4
				c3-0.3,3.1-0.2,3.1-4.9v-9c0-4.7-0.1-4.5-3.1-4.9c-0.1,0-0.2-0.4,0-0.3c2.1,0.2,5,0.2,8,0.2c2.2,0,4.1-0.1,5.7-0.2
				c-0.1,0.4-0.2,1-0.2,1.6c0,0.3,0,0.9,0.1,1.1c0,0.1-0.4,0.1-0.4,0c-0.2-1.4-0.8-1.8-4.8-1.8h-2.9C29,45.6,29,47,29,49v4h3.1
				c3.3,0,3.1-0.3,3.2-1.1c0,0,0.4-0.1,0.4,0c-0.1,0.5-0.2,1.2-0.2,1.9c0,0.3,0,1,0.1,1.2c0,0.1-0.3,0.1-0.3,0
				c-0.2-1-0.3-1.4-3.1-1.4H29V58c0,4,0.5,4.4,1.9,4.4h1.5c4.6,0,4.8-0.5,5.3-2.5c0,0,0.4,0,0.4,0.1C37.9,60.8,37.7,62.2,37.5,62.8z
				"/>
			<path fill="#A39A96" d="M65,45.6c0,0.5,0,1.2,0.1,1.6c0,0.1-0.4,0-0.4,0c-0.2-1.4-0.7-2.1-4.6-2.1h-3.2v13.1c0,4.5,0,4.7,2.8,4.9
				c0.1,0,0.2,0.4,0,0.4c-0.9-0.1-2.4-0.2-3.6-0.2c-1.7,0-3.1,0.1-4.3,0.2c-0.1,0-0.1-0.3,0-0.4c2.7-0.3,2.8-0.2,2.8-4.9V45.1h-3.3
				c-3.8,0-4.4,0.7-4.8,2.1c0,0-0.4,0.1-0.3,0c0.1-0.6,0.2-1.7,0.2-2.5c0-0.5-0.1-1.1-0.2-1.6c0-0.1,0.4,0,0.4,0
				c0.2,1,0.4,1.1,4.7,1.1h8.8c4.4,0,4.6-0.1,4.8-1.1c0,0,0.4-0.1,0.3,0C65.1,43.8,65,44.6,65,45.6z"/>
			<path fill="#A39A96" d="M91.1,63.2c-1.7,0-2.8,0.1-4.1,0.2c-0.2,0-0.1-0.3,0-0.4c2.3-0.2,2.6-0.3,2.6-4.9v-4.3H78.3v4.3
				c0,4.4,0.1,4.7,2.6,4.9c0.1,0,0.2,0.4,0,0.4c-0.9-0.1-2.1-0.2-3.4-0.2c-1.7,0-3.3,0.1-4.6,0.2c-0.1,0-0.1-0.3,0-0.4
				c3-0.3,3.1-0.2,3.1-4.9v-9c0-4.7,0-4.5-3.1-4.9c-0.1,0-0.1-0.4,0-0.3c1.3,0.2,2.9,0.2,4.6,0.2c1.3,0,2.5-0.1,3.4-0.2
				c0.2,0,0.1,0.3,0,0.3c-2.4,0.2-2.6,0.5-2.6,4.9v4.1h11.3v-4.1c0-4.6-0.2-4.6-2.6-4.9c-0.1,0-0.2-0.4,0-0.3
				c1.3,0.2,2.3,0.2,4.1,0.2c1.2,0,3-0.1,3.9-0.2c0.2,0,0.1,0.3,0,0.3c-3.1,0.3-3.1,0.4-3.1,4.9v9c0,4.5-0.1,4.6,3.1,4.9
				c0.1,0,0.2,0.4,0,0.4C94.1,63.3,92.3,63.2,91.1,63.2z"/>
			<path fill="#A39A96" d="M137.7,49.1l-5.9,14.5c0,0.1-0.3,0.1-0.3,0l-4.5-13l-5.6,13c0,0.1-0.3,0.1-0.3,0l-5.7-14.5
				c-1.4-3.6-1.9-4.7-4.3-4.9c-0.1,0-0.1-0.4,0-0.3c0.8,0.1,2,0.2,3.1,0.2c1.6,0,3.6-0.1,4.7-0.2c0.2,0,0.1,0.3,0,0.3
				c-1.4,0.1-2.2,0.4-2.2,1.2c0,0.6,0.7,2.7,1.1,3.7l4.2,10.9l4.4-10.5l-0.1-0.4c-1.3-3.7-1.8-4.7-4.1-4.9c-0.1,0-0.1-0.4,0-0.3
				c0.8,0.1,2,0.2,3.1,0.2c1.6,0,3.8-0.1,5-0.2c0.1,0,0.1,0.3,0,0.3c-1.9,0.1-2.5,0.4-2.5,1.4c0,0.7,0.3,1.8,0.9,3.5l3.6,10.9
				l4.3-11.1c0.7-1.8,1.1-2.7,1.1-3.5c0-0.8-0.5-1.1-2-1.2c-0.1,0-0.2-0.4,0-0.3c0.8,0.1,1.7,0.2,2.9,0.2c1.6,0,1.6-0.1,2.8-0.2
				c0.1,0,0.1,0.3,0,0.3C139.7,44.4,139.1,45.7,137.7,49.1z"/>
			<path fill="#A39A96" d="M160.1,62.8c-0.2,0.5-0.3,0.5-0.7,0.5c-1.1,0-2.9-0.2-5.1-0.2c-2.9,0-6,0.1-8.1,0.2c-0.2,0-0.1-0.3,0-0.4
				c3-0.3,3.1-0.2,3.1-4.9v-9c0-4.7-0.1-4.5-3.1-4.9c-0.1,0-0.2-0.4,0-0.3c2.1,0.2,5,0.2,8,0.2c2.2,0,4.1-0.1,5.7-0.2
				c-0.1,0.4-0.2,1-0.2,1.6c0,0.3,0,0.9,0.1,1.1c0,0.1-0.4,0.1-0.4,0c-0.2-1.4-0.8-1.8-4.8-1.8h-2.9c-0.1,0.8-0.2,2.2-0.2,4.1v4h3.1
				c3.3,0,3.1-0.3,3.2-1.1c0,0,0.4-0.1,0.4,0c-0.1,0.5-0.2,1.2-0.2,1.9c0,0.3,0,1,0.1,1.2c0,0.1-0.3,0.1-0.3,0
				c-0.2-1-0.3-1.4-3.1-1.4h-3.1V58c0,4,0.5,4.4,1.9,4.4h1.5c4.6,0,4.8-0.5,5.3-2.5c0,0,0.4,0,0.4,0.1
				C160.6,60.8,160.3,62.2,160.1,62.8z"/>
			<path fill="#A39A96" d="M176.5,63.3c-1,0-3-0.1-3.7-0.1c-1.7,0-3.1,0.1-4.3,0.2c-0.2,0-0.1-0.3,0-0.4c2.7-0.3,2.8-0.2,2.8-4.9v-9
				c0-4.6-0.2-4.6-2.8-4.9c-0.1,0-0.2-0.4,0-0.3c1.2,0.2,2.1,0.2,3.8,0.2c0.7,0,2.6-0.1,3.6-0.1c3.2,0,6,1.5,6,4.4
				c0,1.9-1.9,3.8-4.4,4.3c3.5-0.1,6.2,1.9,6.2,4.7C183.6,60.7,180.9,63.3,176.5,63.3z M174.4,53.1c-0.1,0-0.1-0.4,0-0.4
				c3.6,0,5.1-1.1,5.1-3.9c0-3.1-1.8-4.2-4.4-4.2c-0.5,0-0.7,0-1.2,0.1c-0.2,0.9-0.3,2.1-0.3,4.4v9.2c0,4,0.3,4.4,2.5,4.4
				c3.3,0,5-1.2,5-4.8C181.2,54.9,178.7,52.6,174.4,53.1z"/>
			<path fill="#A39A96" d="M198.6,63.3c-1,0-3-0.1-3.7-0.1c-1.7,0-3.1,0.1-4.3,0.2c-0.2,0-0.1-0.3,0-0.4c2.7-0.3,2.8-0.2,2.8-4.9v-9
				c0-4.6-0.2-4.6-2.8-4.9c-0.1,0-0.2-0.4,0-0.3c1.2,0.2,2.1,0.2,3.8,0.2c0.7,0,2.6-0.1,3.6-0.1c3.2,0,6,1.5,6,4.4
				c0,1.9-1.9,3.8-4.4,4.3c3.5-0.1,6.2,1.9,6.2,4.7C205.8,60.7,203,63.3,198.6,63.3z M196.6,53.1c-0.1,0-0.1-0.4,0-0.4
				c3.6,0,5.1-1.1,5.1-3.9c0-3.1-1.8-4.2-4.4-4.2c-0.5,0-0.7,0-1.2,0.1c-0.2,0.9-0.3,2.1-0.3,4.4v9.2c0,4,0.3,4.4,2.5,4.4
				c3.3,0,5-1.2,5-4.8C203.3,54.9,200.8,52.6,196.6,53.1z"/>
		</g>
	</g>
</g>
</svg>
